<svg width="27" height="23" viewBox="0 0 27 23" fill="none" xmlns="http://www.w3.org/2000/svg">
<path d="M7.28505 7.48598L4.45605 10.315L12.2391 18.098L26.1711 4.16598L23.3431 1.33698L12.2391 12.439L7.28505 7.48598Z" fill="#C5C5C5"/>
<path d="M21 20C21 20.542 20.542 21 20 21H3C2.458 21 2 20.542 2 20V3C2 2.458 2.458 2 3 2H19.908L21.493 0.415C21.041 0.146542 20.5257 0.00329969 20 0H3C1.35 0 0 1.35 0 3V20C0 21.65 1.35 23 3 23H20C21.65 23 23 21.65 23 20V10.171L21 12.171V20Z" fill="#C5C5C5"/>
</svg>
